<svg xmlns="http://www.w3.org/2000/svg" style="display: none;">
    <symbol id="cross" viewBox="0 0 32 32">
      <title>cross icon</title>
      <path fill="#444" d="M31.708 25.708L22 16l9.708-9.708c.105-.105.18-.227.23-.357.132-.356.056-.77-.23-1.057L27.122.292c-.286-.286-.702-.36-1.057-.23-.13.05-.252.125-.357.23L16 9.998 6.292.29C6.187.188 6.065.11 5.935.064c-.356-.133-.77-.057-1.057.23L.292 4.877c-.286.286-.36.702-.23 1.057.05.13.125.252.23.357L10 16 .292 25.708c-.104.105-.18.227-.23.357-.132.355-.056.77.23 1.057l4.586 4.586c.286.286.702.36 1.057.23.13-.05.252-.125.357-.23L16 22l9.708 9.708c.105.105.227.18.357.23.356.132.77.056 1.057-.23l4.586-4.586c.286-.286.362-.702.23-1.057-.05-.13-.125-.252-.23-.357z"/>
    </symbol>
    <symbol id="pencil" viewBox="0 0 32 32">
      <title>pencil icon</title>
      <path fill="#444" d="M27 0c2.76 0 5 2.24 5 5 0 1.126-.372 2.164-1 3l-2 2-7-7 2-2c.836-.628 1.874-1 3-1zM2 23l-2 9 9-2 18.5-18.5-7-7L2 23zm20.362-11.638l-14 14-1.724-1.724 14-14 1.724 1.724z"/>
    </symbol>
</svg>